<svg width="890" height="100" viewBox="0 0 890 100" fill="none" xmlns="http://www.w3.org/2000/svg">
<path opacity="0.8" d="M80 40.503L40.0716 0L0.142536 40.5036L9.4332 49.928L0 59.4963L39.9284 100L79.8575 59.4963L70.5668 50.072L80 40.503ZM39.9284 92.1951L7.69421 59.4963L13.28 53.8296L40.0716 81.0067L52.6703 68.2255L24.2654 39.4118L20.4192 43.3134L44.9778 68.2255L40.0716 73.2023L7.83675 40.5036L40.0716 7.80435L72.3064 40.503L66.72 46.1698L39.9284 18.9933L27.3291 31.7739L55.7352 60.5876L59.5814 56.686L35.0228 31.7739L39.9284 26.7976L72.1633 59.4958L39.9284 92.1951Z" fill="#232123"/>
<path d="M113.84 70.96C122.8 70.96 126.24 66.88 126.24 62.48C126.24 58.4 123.28 55.92 118.08 54.64L109.28 52.48C100.88 50.48 94.96 45.92 94.96 37.12C94.96 27.44 103.28 21.28 114.16 21.28C125.92 21.28 132.32 28 134.24 34.08L126.96 37.92C126.08 34 122 28.88 114.16 28.88C107.6 28.88 103.36 32.08 103.36 36.96C103.36 41.04 106.4 43.36 111.12 44.48L120.32 46.64C130.16 49.04 134.8 54.72 134.8 62.32C134.8 71.2 127.6 78.72 113.68 78.72C101.28 78.72 94.24 71.52 92 65.36L99.12 61.36C100.72 66.72 106.32 70.96 113.84 70.96ZM162.861 78.72C150.221 78.72 141.981 69.44 141.981 57.44C141.981 45.28 150.301 36.08 162.781 36.08C174.861 36.08 182.461 45.6 182.461 56.48V60.24H150.061C151.101 68.08 156.381 71.52 162.861 71.52C169.421 71.52 173.661 67.52 174.941 63.92L181.101 67.2C179.341 71.76 173.741 78.72 162.861 78.72ZM150.301 53.52H174.141C174.061 48.4 169.741 43.12 162.701 43.12C156.621 43.12 151.661 46.72 150.301 53.52ZM210.056 78.72C198.536 78.72 188.856 70.24 188.856 57.36C188.856 44.56 198.296 36.08 210.056 36.08C220.776 36.08 226.696 42.4 228.936 48.08L221.976 51.68C220.536 47.6 216.616 43.52 210.056 43.52C202.296 43.52 196.936 49.36 196.936 57.36C196.936 65.2 202.296 71.36 210.056 71.36C216.376 71.36 220.536 67.44 221.976 63.36L228.936 66.96C226.696 72.48 220.456 78.72 210.056 78.72ZM254.139 78.72C244.699 78.72 238.219 71.84 238.219 62.88V36.8H246.219V61.12C246.219 67.52 250.459 71.2 255.819 71.2C261.339 71.2 265.579 67.2 265.579 61.12V36.8H273.579V69.76L276.459 78H267.899L266.299 73.68C264.539 76 260.459 78.72 254.139 78.72ZM286.831 78V36.8H294.831V44.16L310.431 35.92V44.56L294.831 52.32V78H286.831ZM335.752 78.72C323.112 78.72 314.872 69.44 314.872 57.44C314.872 45.28 323.192 36.08 335.672 36.08C347.752 36.08 355.352 45.6 355.352 56.48V60.24H322.952C323.992 68.08 329.272 71.52 335.752 71.52C342.312 71.52 346.552 67.52 347.832 63.92L353.992 67.2C352.232 71.76 346.632 78.72 335.752 78.72ZM323.192 53.52H347.032C346.952 48.4 342.632 43.12 335.592 43.12C329.512 43.12 324.552 46.72 323.192 53.52ZM374.707 78L360.547 22H369.107L379.827 65.44L391.187 22H400.467L411.987 65.44L422.627 22H431.267L416.947 78H407.427L395.907 34.56L384.147 78H374.707ZM454.658 78.72C442.018 78.72 433.778 69.44 433.778 57.44C433.778 45.28 442.098 36.08 454.578 36.08C466.658 36.08 474.258 45.6 474.258 56.48V60.24H441.858C442.898 68.08 448.178 71.52 454.658 71.52C461.218 71.52 465.458 67.52 466.738 63.92L472.898 67.2C471.138 71.76 465.538 78.72 454.658 78.72ZM442.098 53.52H465.938C465.858 48.4 461.538 43.12 454.498 43.12C448.418 43.12 443.458 46.72 442.098 53.52ZM506.013 78.72C500.573 78.72 494.893 76.24 492.253 72.8V78H484.253V18.8H492.253V42.24C494.653 38.72 500.173 36.08 506.013 36.08C517.373 36.08 526.093 45.04 526.093 57.36C526.093 70.72 517.213 78.72 506.013 78.72ZM492.093 57.36C492.093 65.04 497.053 71.36 505.053 71.36C513.053 71.36 518.013 65.04 518.013 57.36C518.013 49.76 513.053 43.52 505.053 43.52C497.053 43.52 492.093 49.84 492.093 57.36ZM555.168 70.96C564.128 70.96 567.568 66.88 567.568 62.48C567.568 58.4 564.608 55.92 559.408 54.64L550.608 52.48C542.208 50.48 536.288 45.92 536.288 37.12C536.288 27.44 544.608 21.28 555.488 21.28C567.248 21.28 573.648 28 575.568 34.08L568.288 37.92C567.408 34 563.328 28.88 555.488 28.88C548.928 28.88 544.688 32.08 544.688 36.96C544.688 41.04 547.728 43.36 552.448 44.48L561.648 46.64C571.488 49.04 576.128 54.72 576.128 62.32C576.128 71.2 568.928 78.72 555.008 78.72C542.608 78.72 535.568 71.52 533.328 65.36L540.448 61.36C542.048 66.72 547.648 70.96 555.168 70.96ZM604.989 78.72C592.349 78.72 583.309 69.76 583.309 57.44C583.309 45.12 592.429 36.08 604.989 36.08C617.549 36.08 626.669 45.12 626.669 57.44C626.669 69.68 617.629 78.72 604.989 78.72ZM591.389 57.44C591.389 65.6 597.389 71.36 604.989 71.36C612.669 71.36 618.589 65.6 618.589 57.44C618.589 49.28 612.669 43.52 604.989 43.52C597.309 43.52 591.389 49.28 591.389 57.44ZM635.875 78V18.8H643.875V78H635.875ZM671.795 78.72C662.355 78.72 655.875 71.84 655.875 62.88V36.8H663.875V61.12C663.875 67.52 668.115 71.2 673.475 71.2C678.995 71.2 683.235 67.2 683.235 61.12V36.8H691.235V69.76L694.115 78H685.555L683.955 73.68C682.195 76 678.115 78.72 671.795 78.72ZM707.208 78V43.84H699.848V36.8H707.448V26.16H715.208V36.8H725.848V43.84H715.208V70.48H726.008V78H707.208ZM736.359 78V36.8H744.359V78H736.359ZM734.519 24.16C734.519 20.8 736.999 18.32 740.359 18.32C743.719 18.32 746.199 20.8 746.199 24.16C746.199 27.44 743.719 30 740.359 30C736.999 30 734.519 27.44 734.519 24.16ZM775.849 78.72C763.209 78.72 754.169 69.76 754.169 57.44C754.169 45.12 763.289 36.08 775.849 36.08C788.409 36.08 797.529 45.12 797.529 57.44C797.529 69.68 788.489 78.72 775.849 78.72ZM762.249 57.44C762.249 65.6 768.249 71.36 775.849 71.36C783.529 71.36 789.449 65.6 789.449 57.44C789.449 49.28 783.529 43.52 775.849 43.52C768.169 43.52 762.249 49.28 762.249 57.44ZM807.534 78V36.8H815.534V41.92C817.694 38.48 821.774 36.08 827.374 36.08C836.494 36.08 842.894 42.88 842.894 51.76V78H834.894V53.68C834.894 47.28 830.654 43.6 825.214 43.6C819.694 43.6 815.534 47.6 815.534 53.68V78H807.534ZM869.659 78.72C859.099 78.72 853.659 72.56 852.059 67.6L858.779 64.24C859.739 67.52 863.499 71.6 869.819 71.6C875.259 71.6 878.379 69.44 878.379 66.4C878.379 64 876.699 62.24 873.179 61.52L865.179 60C858.779 58.72 854.299 55.04 854.299 48.32C854.299 41.2 860.779 36.08 869.979 36.08C880.219 36.08 884.699 41.84 886.139 46.24L879.499 49.44C878.859 46.4 875.579 43.04 869.899 43.04C865.019 43.04 862.059 45.28 862.059 48.16C862.059 50.8 863.979 52.24 866.939 52.8L875.339 54.48C882.699 55.92 886.539 60.48 886.539 66.16C886.539 73.6 879.899 78.72 869.659 78.72Z" fill="#232123"/>
</svg>
