<svg width="133" height="133" viewBox="0 0 133 133" fill="none" xmlns="http://www.w3.org/2000/svg">
<path d="M21.6411 101.153L21.667 100.747L21.267 100.67C12.2234 98.9378 4.55498 92.6668 2.11529 83.7168C-0.324393 74.7665 3.09323 65.4676 10.0141 59.3898L10.3203 59.1208L10.0908 58.7836C4.91537 51.1687 3.93482 41.3069 8.53663 33.2562C13.1366 25.1999 22.1279 21.0477 31.3216 21.6412L31.7279 21.6671L31.8046 21.2671C33.5369 12.2235 39.8082 4.55502 48.7582 2.11533C57.7085 -0.324354 67.0074 3.09328 73.0852 10.0141L73.3542 10.3203L73.6914 10.0909C81.3063 4.91541 91.1681 3.93487 99.219 8.53668C107.275 13.1366 111.428 22.128 110.834 31.3217L110.808 31.728L111.208 31.8047C120.252 33.537 127.92 39.8084 130.359 48.7583C132.799 57.7083 129.374 67.0033 122.461 73.0855L122.155 73.3545L122.384 73.6915C127.559 81.3064 128.54 91.1682 123.939 99.219C119.338 107.275 110.347 111.428 101.153 110.834L100.747 110.808L100.67 111.208C98.9378 120.252 92.6667 127.92 83.7167 130.359C74.7667 132.799 65.4718 129.374 59.3895 122.461L59.1205 122.155L58.7835 122.384C51.1686 127.559 41.3068 128.54 33.2561 123.939C25.1998 119.338 21.0477 110.347 21.6411 101.153Z" fill="#3FAEFE" stroke="#232123" stroke-width="2"/>
</svg>
