<svg width="32" height="240" viewBox="0 0 32 240" fill="none" xmlns="http://www.w3.org/2000/svg">
<path d="M17.4552 0C16.698 2.79037 16.0788 5.03496 15.4834 7.28546C12.1034 20.035 12.4609 32.9249 13.9272 45.8722C16.4563 68.1814 21.5185 90.0556 25.4399 112.124C29.3974 134.387 33.0571 156.677 31.7187 179.421C31.0754 190.335 29.5032 201.109 25.8475 211.47C22.5992 220.678 17.9226 229.053 10.3714 235.585C8.18589 237.475 5.82263 239.093 2.95395 239.744C1.96509 239.967 0.602669 240.438 0.0932579 239.01C-0.276315 237.978 0.51277 237.285 1.40174 236.777C10.5811 231.539 14.9621 222.807 18.4001 213.503C21.8801 204.086 23.0947 194.198 24.0076 184.274C25.8894 163.818 23.8817 143.555 20.6395 123.396C17.6569 104.848 14.115 86.3872 11.1245 67.8413C9.03491 54.8821 7.93219 41.8162 8.64736 28.6553C9.11482 20.0627 11.3323 11.8398 13.9512 3.70798C14.4107 2.29202 14.8042 0.589325 17.4552 0Z" fill="#232123"/>
</svg>
